{
  "accessors": [
    {
      "bufferView": 2,
      "componentType": 5126,
      "count": 20,
      "max": [
        0.5,
        0.5,
        0.5
      ],
      "min": [
        -0.5,
        -0.5,
        -0.5
      ],
      "type": "VEC3"
    },
    {
      "bufferView": 2,
      "byteOffset": 240,
      "componentType": 5126,
      "count": 20,
      "max": [
        0.99998724460601807,
        0.99999994039535522,
        0.99998724460601807
      ],
      "min": [
        -0.99998718500137329,
        0.0050507178530097008,
        -0.99998718500137329
      ],
      "type": "VEC3"
    },
    {
      "bufferView": 1,
      "componentType": 5126,
      "count": 20,
      "max": [
        1,
        1
      ],
      "min": [
        0,
        0
      ],
      "type": "VEC2"
    },
    {
      "bufferView": 0,
      "componentType": 5125,
      "count": 30,
      "max": [
        19
      ],
      "min": [
        0
      ],
      "type": "SCALAR"
    },
    {
      "bufferView": 2,
      "byteOffset": 480,
      "componentType": 5126,
      "count": 498,
      "max": [
        0.45674100518226624,
        0.5,
        0.42260599136352539
      ],
      "min": [
        -0.5,
        0.44209200143814087,
        -0.36649900674819946
      ],
      "type": "VEC3"
    },
    {
      "bufferView": 2,
      "byteOffset": 6456,
      "componentType": 5126,
      "count": 498,
      "max": [
        0.9999995231628418,
        0.99999994039535522,
        0.99997198581695557
      ],
      "min": [
        -0.9999958872795105,
        -0.99999994039535522,
        -0.99999958276748657
      ],
      "type": "VEC3"
    },
    {
      "bufferView": 1,
      "byteOffset": 160,
      "componentType": 5126,
      "count": 498,
      "max": [
        0.98656702041625977,
        0.9917140007019043
      ],
      "min": [
        0.0096359802410006523,
        0.0082860002294182777
      ],
      "type": "VEC2"
    },
    {
      "bufferView": 0,
      "byteOffset": 120,
      "componentType": 5125,
      "count": 1080,
      "max": [
        497
      ],
      "min": [
        0
      ],
      "type": "SCALAR"
    },
    {
      "bufferView": 2,
      "byteOffset": 12432,
      "componentType": 5126,
      "count": 996,
      "max": [
        -0.03531700000166893,
        0.44209200143814087,
        0.5
      ],
      "min": [
        -0.48876899480819702,
        -0.5,
        -0.5
      ],
      "type": "VEC3"
    },
    {
      "bufferView": 2,
      "byteOffset": 24384,
      "componentType": 5126,
      "count": 996,
      "max": [
        0.9999767541885376,
        0.99999994039535522,
        0.99645000696182251
      ],
      "min": [
        -0.99997645616531372,
        -0.99999994039535522,
        -0.99644774198532104
      ],
      "type": "VEC3"
    },
    {
      "bufferView": 1,
      "byteOffset": 4144,
      "componentType": 5126,
      "count": 996,
      "max": [
        0.99599099159240723,
        0.997173011302948
      ],
      "min": [
        0.0052550099790096283,
        0.0040779998525977135
      ],
      "type": "VEC2"
    },
    {
      "bufferView": 0,
      "byteOffset": 4440,
      "componentType": 5125,
      "count": 1980,
      "max": [
        995
      ],
      "min": [
        0
      ],
      "type": "SCALAR"
    },
    {
      "bufferView": 2,
      "byteOffset": 36336,
      "componentType": 5126,
      "count": 1004,
      "max": [
        0.5,
        0.44209200143814087,
        0.49116501212120056
      ],
      "min": [
        0.12111800163984299,
        -0.5,
        -0.44982799887657166
      ],
      "type": "VEC3"
    },
    {
      "bufferView": 2,
      "byteOffset": 48384,
      "componentType": 5126,
      "count": 1004,
      "max": [
        0.99922657012939453,
        0.99999994039535522,
        0.95390617847442627
      ],
      "min": [
        -0.99922770261764526,
        -0.99999994039535522,
        -0.95390033721923828
      ],
      "type": "VEC3"
    },
    {
      "bufferView": 1,
      "byteOffset": 12112,
      "componentType": 5126,
      "count": 1004,
      "max": [
        0.99599099159240723,
        0.997173011302948
      ],
      "min": [
        0.0052550099790096283,
        0.0040779998525977135
      ],
      "type": "VEC2"
    },
    {
      "bufferView": 0,
      "byteOffset": 12360,
      "componentType": 5125,
      "count": 1980,
      "max": [
        1003
      ],
      "min": [
        0
      ],
      "type": "SCALAR"
    }
  ],
  "asset": {
    "extras": {
      "author": "Đ Ø ₵ ₮ Ø Ɽ 3 Đ (https://sketchfab.com/doctor3d)",
      "license": "CC-BY-4.0 (http://creativecommons.org/licenses/by/4.0/)",
      "source": "https://sketchfab.com/3d-models/hipster-bench-4f410ec0f1b947c1aca139282b8a2d93",
      "title": "Hipster Bench"
    },
    "generator": "Sketchfab-9.90.0",
    "version": "2.0"
  },
  "bufferViews": [
    {
      "buffer": 0,
      "byteLength": 20280,
      "byteOffset": 0,
      "name": "floatBufferViews",
      "target": 34963
    },
    {
      "buffer": 0,
      "byteLength": 20144,
      "byteOffset": 20280,
      "byteStride": 8,
      "name": "floatBufferViews",
      "target": 34962
    },
    {
      "buffer": 0,
      "byteLength": 60432,
      "byteOffset": 40424,
      "byteStride": 12,
      "name": "floatBufferViews",
      "target": 34962
    }
  ],
  "buffers": [
    {
      "byteLength": 100856,
      "uri": "scene.bin"
    }
  ],
  "images": [
    {
      "uri": "textures/Material0-material_baseColor.png"
    },
    {
      "uri": "textures/Material1-material_baseColor.png"
    },
    {
      "uri": "textures/Material2-material_baseColor.png"
    },
    {
      "uri": "textures/Material3-material_baseColor.png"
    }
  ],
  "materials": [
    {
      "doubleSided": true,
      "name": "Material0-material",
      "pbrMetallicRoughness": {
        "baseColorFactor": [
          1,
          1,
          1,
          1
        ],
        "baseColorTexture": {
          "index": 0,
          "texCoord": 0
        },
        "metallicFactor": 0,
        "roughnessFactor": 0.52308070403349871
      }
    },
    {
      "doubleSided": true,
      "name": "Material1-material",
      "pbrMetallicRoughness": {
        "baseColorFactor": [
          1,
          1,
          1,
          1
        ],
        "baseColorTexture": {
          "index": 1,
          "texCoord": 0
        },
        "metallicFactor": 0,
        "roughnessFactor": 1
      }
    },
    {
      "doubleSided": true,
      "name": "Material2-material",
      "pbrMetallicRoughness": {
        "baseColorFactor": [
          1,
          1,
          1,
          1
        ],
        "baseColorTexture": {
          "index": 2,
          "texCoord": 0
        },
        "metallicFactor": 0,
        "roughnessFactor": 1
      }
    },
    {
      "alphaMode": "BLEND",
      "doubleSided": true,
      "name": "Material3-material",
      "pbrMetallicRoughness": {
        "baseColorFactor": [
          1,
          1,
          1,
          1
        ],
        "baseColorTexture": {
          "index": 3,
          "texCoord": 0
        },
        "metallicFactor": 0,
        "roughnessFactor": 0.59999999999999998
      }
    }
  ],
  "meshes": [
    {
      "name": "Material3-material",
      "primitives": [
        {
          "attributes": {
            "NORMAL": 1,
            "POSITION": 0,
            "TEXCOORD_0": 2
          },
          "indices": 3,
          "material": 3,
          "mode": 4
        }
      ]
    },
    {
      "name": "Material0-material",
      "primitives": [
        {
          "attributes": {
            "NORMAL": 5,
            "POSITION": 4,
            "TEXCOORD_0": 6
          },
          "indices": 7,
          "material": 0,
          "mode": 4
        }
      ]
    },
    {
      "name": "Material1-material",
      "primitives": [
        {
          "attributes": {
            "NORMAL": 9,
            "POSITION": 8,
            "TEXCOORD_0": 10
          },
          "indices": 11,
          "material": 1,
          "mode": 4
        }
      ]
    },
    {
      "name": "Material2-material",
      "primitives": [
        {
          "attributes": {
            "NORMAL": 13,
            "POSITION": 12,
            "TEXCOORD_0": 14
          },
          "indices": 15,
          "material": 2,
          "mode": 4
        }
      ]
    }
  ],
  "nodes": [
    {
      "children": [
        1
      ],
      "name": "RootNode (gltf orientation matrix)",
      "rotation": [
        -0.70710678118654746,
        -0,
        -0,
        0.70710678118654757
      ]
    },
    {
      "children": [
        2
      ],
      "name": "RootNode (model correction matrix)"
    },
    {
      "children": [
        3,
        5
      ],
      "name": "Collada visual scene group"
    },
    {
      "children": [
        4
      ],
      "matrix": [
        -0.65983099999999995,
        -2.7386400000000002,
        -0.071388699999999999,
        0,
        0.00074888999999999999,
        -0.000958332,
        0.0298421,
        0,
        -1.3908,
        0.33390300000000001,
        0.045625100000000002,
        0,
        0,
        0,
        0,
        1
      ],
      "name": "prim1"
    },
    {
      "mesh": 0,
      "name": "Material3-material"
    },
    {
      "children": [
        6,
        7,
        8
      ],
      "matrix": [
        -0.46648299999999998,
        -1.93614,
        -0.050469899999999998,
        0,
        0.016019100000000001,
        -0.020499199999999999,
        0.63833600000000001,
        0,
        -0.68453900000000001,
        0.16434399999999999,
        0.022456199999999999,
        0,
        0.0051498400000000001,
        -0.045310999999999997,
        0.33317400000000003,
        1
      ],
      "name": "prim0"
    },
    {
      "mesh": 1,
      "name": "Material0-material"
    },
    {
      "mesh": 2,
      "name": "Material1-material"
    },
    {
      "mesh": 3,
      "name": "Material2-material"
    }
  ],
  "samplers": [
    {
      "magFilter": 9729,
      "minFilter": 9987,
      "wrapS": 10497,
      "wrapT": 10497
    }
  ],
  "scene": 0,
  "scenes": [
    {
      "name": "OSG_Scene",
      "nodes": [
        0
      ]
    }
  ],
  "textures": [
    {
      "sampler": 0,
      "source": 0
    },
    {
      "sampler": 0,
      "source": 1
    },
    {
      "sampler": 0,
      "source": 2
    },
    {
      "sampler": 0,
      "source": 3
    }
  ]
}

